<svg xmlns="http://www.w3.org/2000/svg" viewBox="0 0 800 1000" role="img" aria-label="Headshot placeholder">
  <defs>
    <linearGradient id="bg" x1="0" y1="0" x2="1" y2="1">
      <stop offset="0%" stop-color="#121d31"/>
      <stop offset="100%" stop-color="#0b1220"/>
    </linearGradient>
    <linearGradient id="ring" x1="0" y1="0" x2="1" y2="1">
      <stop offset="0%" stop-color="#d6b37d" stop-opacity="0.75"/>
      <stop offset="100%" stop-color="#8bd5d2" stop-opacity="0.35"/>
    </linearGradient>
  </defs>
  <rect width="800" height="1000" rx="36" fill="url(#bg)"/>
  <rect x="36" y="36" width="728" height="928" rx="30" fill="none" stroke="url(#ring)" stroke-width="2"/>
  <circle cx="400" cy="360" r="132" fill="#18253a" stroke="#d6b37d" stroke-opacity="0.35" stroke-width="3"/>
  <path d="M400 300c-58 0-104 46-104 104 0 27 10 52 27 71 20 23 49 37 81 37s61-14 81-37c17-19 27-44 27-71 0-58-46-104-104-104z" fill="#22334e"/>
  <path d="M232 764c18-92 92-158 168-158s150 66 168 158" fill="#18253a" stroke="#d6b37d" stroke-opacity="0.25" stroke-width="2"/>
  <text x="400" y="860" fill="#f0dfc2" font-family="Inter, Arial, sans-serif" font-size="36" text-anchor="middle" letter-spacing="4">OFFICIAL HEADSHOT</text>
  <text x="400" y="905" fill="#9fb0c8" font-family="Inter, Arial, sans-serif" font-size="22" text-anchor="middle" letter-spacing="3">PLACEHOLDER</text>
</svg>
